<mxfile host="app.diagrams.net" modified="2023-10-02T04:42:47.045Z" agent="Mozilla/5.0 (Windows NT 10.0; Win64; x64) AppleWebKit/537.36 (KHTML, like Gecko) Chrome/116.0.5845.2271 YaBrowser/23.9.0.2271 Yowser/2.5 Safari/537.36" etag="w-5SpD6ko5Jy-xccfM2C" version="22.0.0" type="device">
  <diagram name="Page-1" id="2YBvvXClWsGukQMizWep">
    <mxGraphModel dx="514" dy="463" grid="1" gridSize="10" guides="1" tooltips="1" connect="1" arrows="1" fold="1" page="1" pageScale="1" pageWidth="850" pageHeight="1100" math="0" shadow="0">
      <root>
        <mxCell id="0" />
        <mxCell id="1" parent="0" />
        <mxCell id="aM9ryv3xv72pqoxQDRHE-1" value="User" style="shape=umlLifeline;perimeter=lifelinePerimeter;whiteSpace=wrap;html=1;container=0;dropTarget=0;collapsible=0;recursiveResize=0;outlineConnect=0;portConstraint=eastwest;newEdgeStyle={&quot;edgeStyle&quot;:&quot;elbowEdgeStyle&quot;,&quot;elbow&quot;:&quot;vertical&quot;,&quot;curved&quot;:0,&quot;rounded&quot;:0};" parent="1" vertex="1">
          <mxGeometry x="40" y="40" width="100" height="800" as="geometry" />
        </mxCell>
        <mxCell id="aM9ryv3xv72pqoxQDRHE-2" value="" style="html=1;points=[];perimeter=orthogonalPerimeter;outlineConnect=0;targetShapes=umlLifeline;portConstraint=eastwest;newEdgeStyle={&quot;edgeStyle&quot;:&quot;elbowEdgeStyle&quot;,&quot;elbow&quot;:&quot;vertical&quot;,&quot;curved&quot;:0,&quot;rounded&quot;:0};" parent="aM9ryv3xv72pqoxQDRHE-1" vertex="1">
          <mxGeometry x="45" y="70" width="10" height="710" as="geometry" />
        </mxCell>
        <mxCell id="aM9ryv3xv72pqoxQDRHE-3" value="Начало" style="html=1;verticalAlign=bottom;startArrow=oval;endArrow=block;startSize=8;edgeStyle=elbowEdgeStyle;elbow=vertical;curved=0;rounded=0;" parent="aM9ryv3xv72pqoxQDRHE-1" target="aM9ryv3xv72pqoxQDRHE-2" edge="1">
          <mxGeometry relative="1" as="geometry">
            <mxPoint x="-15" y="70" as="sourcePoint" />
          </mxGeometry>
        </mxCell>
        <mxCell id="aM9ryv3xv72pqoxQDRHE-5" value="Bot" style="shape=umlLifeline;perimeter=lifelinePerimeter;whiteSpace=wrap;html=1;container=0;dropTarget=0;collapsible=0;recursiveResize=0;outlineConnect=0;portConstraint=eastwest;newEdgeStyle={&quot;edgeStyle&quot;:&quot;elbowEdgeStyle&quot;,&quot;elbow&quot;:&quot;vertical&quot;,&quot;curved&quot;:0,&quot;rounded&quot;:0};" parent="1" vertex="1">
          <mxGeometry x="270" y="40" width="100" height="800" as="geometry" />
        </mxCell>
        <mxCell id="aM9ryv3xv72pqoxQDRHE-6" value="" style="html=1;points=[];perimeter=orthogonalPerimeter;outlineConnect=0;targetShapes=umlLifeline;portConstraint=eastwest;newEdgeStyle={&quot;edgeStyle&quot;:&quot;elbowEdgeStyle&quot;,&quot;elbow&quot;:&quot;vertical&quot;,&quot;curved&quot;:0,&quot;rounded&quot;:0};" parent="aM9ryv3xv72pqoxQDRHE-5" vertex="1">
          <mxGeometry x="45" y="80" width="10" height="700" as="geometry" />
        </mxCell>
        <mxCell id="aM9ryv3xv72pqoxQDRHE-7" value="Активация бота" style="html=1;verticalAlign=bottom;endArrow=block;edgeStyle=elbowEdgeStyle;elbow=vertical;curved=0;rounded=0;" parent="1" source="aM9ryv3xv72pqoxQDRHE-2" target="aM9ryv3xv72pqoxQDRHE-6" edge="1">
          <mxGeometry relative="1" as="geometry">
            <mxPoint x="195" y="130" as="sourcePoint" />
            <Array as="points">
              <mxPoint x="180" y="120" />
            </Array>
          </mxGeometry>
        </mxCell>
        <mxCell id="aM9ryv3xv72pqoxQDRHE-8" value="Подтверждение записи" style="html=1;verticalAlign=bottom;endArrow=open;dashed=1;endSize=8;edgeStyle=elbowEdgeStyle;elbow=vertical;curved=0;rounded=0;exitX=0.5;exitY=0.983;exitDx=0;exitDy=0;exitPerimeter=0;" parent="1" source="IaazxQ_HQGSogyqd4juv-2" target="aM9ryv3xv72pqoxQDRHE-6" edge="1">
          <mxGeometry relative="1" as="geometry">
            <mxPoint x="270" y="189.66" as="targetPoint" />
            <Array as="points">
              <mxPoint x="365" y="189.66" />
            </Array>
            <mxPoint x="440" y="189.66" as="sourcePoint" />
          </mxGeometry>
        </mxCell>
        <mxCell id="aM9ryv3xv72pqoxQDRHE-9" value="Запрос языка изучения" style="html=1;verticalAlign=bottom;endArrow=open;edgeStyle=elbowEdgeStyle;elbow=vertical;curved=0;rounded=0;dashed=1;endFill=0;" parent="1" source="aM9ryv3xv72pqoxQDRHE-6" target="aM9ryv3xv72pqoxQDRHE-2" edge="1">
          <mxGeometry relative="1" as="geometry">
            <mxPoint x="175" y="160" as="sourcePoint" />
            <Array as="points">
              <mxPoint x="190" y="140" />
            </Array>
            <mxPoint x="100" y="160" as="targetPoint" />
          </mxGeometry>
        </mxCell>
        <mxCell id="aM9ryv3xv72pqoxQDRHE-10" value="&amp;nbsp;Язык изучения" style="html=1;verticalAlign=bottom;endArrow=open;dashed=1;endSize=8;edgeStyle=elbowEdgeStyle;elbow=vertical;curved=0;rounded=0;" parent="1" source="aM9ryv3xv72pqoxQDRHE-2" target="aM9ryv3xv72pqoxQDRHE-6" edge="1">
          <mxGeometry relative="1" as="geometry">
            <mxPoint x="265" y="160" as="targetPoint" />
            <Array as="points">
              <mxPoint x="180" y="160" />
            </Array>
            <mxPoint x="100" y="160" as="sourcePoint" />
          </mxGeometry>
        </mxCell>
        <mxCell id="IaazxQ_HQGSogyqd4juv-1" value="DB" style="shape=umlLifeline;perimeter=lifelinePerimeter;whiteSpace=wrap;html=1;container=0;dropTarget=0;collapsible=0;recursiveResize=0;outlineConnect=0;portConstraint=eastwest;newEdgeStyle={&quot;edgeStyle&quot;:&quot;elbowEdgeStyle&quot;,&quot;elbow&quot;:&quot;vertical&quot;,&quot;curved&quot;:0,&quot;rounded&quot;:0};" vertex="1" parent="1">
          <mxGeometry x="470" y="40" width="100" height="800" as="geometry" />
        </mxCell>
        <mxCell id="IaazxQ_HQGSogyqd4juv-2" value="" style="html=1;points=[];perimeter=orthogonalPerimeter;outlineConnect=0;targetShapes=umlLifeline;portConstraint=eastwest;newEdgeStyle={&quot;edgeStyle&quot;:&quot;elbowEdgeStyle&quot;,&quot;elbow&quot;:&quot;vertical&quot;,&quot;curved&quot;:0,&quot;rounded&quot;:0};" vertex="1" parent="IaazxQ_HQGSogyqd4juv-1">
          <mxGeometry x="45" y="130" width="10" height="20" as="geometry" />
        </mxCell>
        <mxCell id="IaazxQ_HQGSogyqd4juv-8" value="" style="html=1;points=[];perimeter=orthogonalPerimeter;outlineConnect=0;targetShapes=umlLifeline;portConstraint=eastwest;newEdgeStyle={&quot;edgeStyle&quot;:&quot;elbowEdgeStyle&quot;,&quot;elbow&quot;:&quot;vertical&quot;,&quot;curved&quot;:0,&quot;rounded&quot;:0};" vertex="1" parent="IaazxQ_HQGSogyqd4juv-1">
          <mxGeometry x="45" y="200" width="10" height="20" as="geometry" />
        </mxCell>
        <mxCell id="IaazxQ_HQGSogyqd4juv-17" value="" style="html=1;points=[];perimeter=orthogonalPerimeter;outlineConnect=0;targetShapes=umlLifeline;portConstraint=eastwest;newEdgeStyle={&quot;edgeStyle&quot;:&quot;elbowEdgeStyle&quot;,&quot;elbow&quot;:&quot;vertical&quot;,&quot;curved&quot;:0,&quot;rounded&quot;:0};" vertex="1" parent="IaazxQ_HQGSogyqd4juv-1">
          <mxGeometry x="45" y="320" width="10" height="20" as="geometry" />
        </mxCell>
        <mxCell id="IaazxQ_HQGSogyqd4juv-18" value="Запись слова" style="html=1;verticalAlign=bottom;endArrow=block;edgeStyle=elbowEdgeStyle;elbow=vertical;curved=0;rounded=0;" edge="1" parent="IaazxQ_HQGSogyqd4juv-1" source="aM9ryv3xv72pqoxQDRHE-6">
          <mxGeometry relative="1" as="geometry">
            <mxPoint x="-125" y="320" as="sourcePoint" />
            <Array as="points">
              <mxPoint x="-35" y="320" />
            </Array>
            <mxPoint x="50" y="320" as="targetPoint" />
          </mxGeometry>
        </mxCell>
        <mxCell id="IaazxQ_HQGSogyqd4juv-29" value="" style="html=1;points=[];perimeter=orthogonalPerimeter;outlineConnect=0;targetShapes=umlLifeline;portConstraint=eastwest;newEdgeStyle={&quot;edgeStyle&quot;:&quot;elbowEdgeStyle&quot;,&quot;elbow&quot;:&quot;vertical&quot;,&quot;curved&quot;:0,&quot;rounded&quot;:0};" vertex="1" parent="IaazxQ_HQGSogyqd4juv-1">
          <mxGeometry x="45" y="410" width="10" height="20" as="geometry" />
        </mxCell>
        <mxCell id="IaazxQ_HQGSogyqd4juv-30" value="Запрос слов" style="html=1;verticalAlign=bottom;endArrow=block;edgeStyle=elbowEdgeStyle;elbow=vertical;curved=0;rounded=0;" edge="1" parent="IaazxQ_HQGSogyqd4juv-1" source="aM9ryv3xv72pqoxQDRHE-6">
          <mxGeometry relative="1" as="geometry">
            <mxPoint x="-125" y="410" as="sourcePoint" />
            <Array as="points">
              <mxPoint x="-35" y="410" />
            </Array>
            <mxPoint x="50" y="410" as="targetPoint" />
          </mxGeometry>
        </mxCell>
        <mxCell id="IaazxQ_HQGSogyqd4juv-43" value="" style="html=1;points=[];perimeter=orthogonalPerimeter;outlineConnect=0;targetShapes=umlLifeline;portConstraint=eastwest;newEdgeStyle={&quot;edgeStyle&quot;:&quot;elbowEdgeStyle&quot;,&quot;elbow&quot;:&quot;vertical&quot;,&quot;curved&quot;:0,&quot;rounded&quot;:0};" vertex="1" parent="IaazxQ_HQGSogyqd4juv-1">
          <mxGeometry x="45" y="710" width="10" height="20" as="geometry" />
        </mxCell>
        <mxCell id="IaazxQ_HQGSogyqd4juv-44" value="Запись слова" style="html=1;verticalAlign=bottom;endArrow=block;edgeStyle=elbowEdgeStyle;elbow=vertical;curved=0;rounded=0;" edge="1" parent="IaazxQ_HQGSogyqd4juv-1">
          <mxGeometry relative="1" as="geometry">
            <mxPoint x="-145" y="710" as="sourcePoint" />
            <Array as="points">
              <mxPoint x="-35" y="710" />
            </Array>
            <mxPoint x="50" y="710" as="targetPoint" />
          </mxGeometry>
        </mxCell>
        <mxCell id="IaazxQ_HQGSogyqd4juv-45" value="Подтверждение записи слова" style="html=1;verticalAlign=bottom;endArrow=open;dashed=1;endSize=8;edgeStyle=elbowEdgeStyle;elbow=vertical;curved=0;rounded=0;" edge="1" parent="IaazxQ_HQGSogyqd4juv-1" source="IaazxQ_HQGSogyqd4juv-43">
          <mxGeometry relative="1" as="geometry">
            <mxPoint x="-145" y="730" as="targetPoint" />
            <Array as="points">
              <mxPoint x="-40" y="730" />
            </Array>
            <mxPoint x="45" y="730.34" as="sourcePoint" />
          </mxGeometry>
        </mxCell>
        <mxCell id="IaazxQ_HQGSogyqd4juv-4" value="Запись языка изучения" style="html=1;verticalAlign=bottom;endArrow=block;edgeStyle=elbowEdgeStyle;elbow=vertical;curved=0;rounded=0;" edge="1" parent="1" source="aM9ryv3xv72pqoxQDRHE-6" target="IaazxQ_HQGSogyqd4juv-2">
          <mxGeometry x="-0.0769" relative="1" as="geometry">
            <mxPoint x="280" y="170" as="sourcePoint" />
            <Array as="points">
              <mxPoint x="365" y="170" />
            </Array>
            <mxPoint x="410" y="170" as="targetPoint" />
            <mxPoint as="offset" />
          </mxGeometry>
        </mxCell>
        <mxCell id="IaazxQ_HQGSogyqd4juv-5" value="Запись слова" style="html=1;verticalAlign=bottom;endArrow=block;edgeStyle=elbowEdgeStyle;elbow=vertical;curved=0;rounded=0;" edge="1" parent="1" source="aM9ryv3xv72pqoxQDRHE-6" target="IaazxQ_HQGSogyqd4juv-8">
          <mxGeometry relative="1" as="geometry">
            <mxPoint x="280" y="240" as="sourcePoint" />
            <Array as="points">
              <mxPoint x="365" y="240" />
            </Array>
            <mxPoint x="450" y="240" as="targetPoint" />
          </mxGeometry>
        </mxCell>
        <mxCell id="IaazxQ_HQGSogyqd4juv-6" value="Отправка Слова Дня" style="html=1;verticalAlign=bottom;endArrow=block;edgeStyle=elbowEdgeStyle;elbow=vertical;curved=0;rounded=0;endFill=1;" edge="1" parent="1" source="aM9ryv3xv72pqoxQDRHE-6" target="aM9ryv3xv72pqoxQDRHE-2">
          <mxGeometry relative="1" as="geometry">
            <mxPoint x="270" y="210" as="sourcePoint" />
            <Array as="points">
              <mxPoint x="195" y="210" />
            </Array>
            <mxPoint x="100" y="210" as="targetPoint" />
          </mxGeometry>
        </mxCell>
        <mxCell id="IaazxQ_HQGSogyqd4juv-7" value="Запрос о сохранении слова" style="html=1;verticalAlign=bottom;endArrow=open;dashed=1;endSize=8;edgeStyle=elbowEdgeStyle;elbow=vertical;curved=0;rounded=0;" edge="1" parent="1" source="aM9ryv3xv72pqoxQDRHE-2" target="aM9ryv3xv72pqoxQDRHE-6">
          <mxGeometry relative="1" as="geometry">
            <mxPoint x="270" y="230" as="targetPoint" />
            <Array as="points">
              <mxPoint x="185" y="230" />
            </Array>
            <mxPoint x="100" y="230" as="sourcePoint" />
          </mxGeometry>
        </mxCell>
        <mxCell id="IaazxQ_HQGSogyqd4juv-9" value="Подтверждение записи" style="html=1;verticalAlign=bottom;endArrow=open;dashed=1;endSize=8;edgeStyle=elbowEdgeStyle;elbow=vertical;curved=0;rounded=0;" edge="1" parent="1" source="IaazxQ_HQGSogyqd4juv-8" target="aM9ryv3xv72pqoxQDRHE-6">
          <mxGeometry relative="1" as="geometry">
            <mxPoint x="270" y="260.34000000000003" as="targetPoint" />
            <Array as="points">
              <mxPoint x="360" y="260" />
            </Array>
            <mxPoint x="445" y="260.34000000000003" as="sourcePoint" />
          </mxGeometry>
        </mxCell>
        <mxCell id="IaazxQ_HQGSogyqd4juv-11" value="Запрос Нового слова" style="html=1;verticalAlign=bottom;endArrow=block;edgeStyle=elbowEdgeStyle;elbow=vertical;curved=0;rounded=0;" edge="1" parent="1" target="aM9ryv3xv72pqoxQDRHE-6">
          <mxGeometry relative="1" as="geometry">
            <mxPoint x="95" y="300" as="sourcePoint" />
            <Array as="points">
              <mxPoint x="175" y="300" />
            </Array>
            <mxPoint x="265" y="300" as="targetPoint" />
          </mxGeometry>
        </mxCell>
        <mxCell id="IaazxQ_HQGSogyqd4juv-12" value="Отправка нового слова" style="html=1;verticalAlign=bottom;endArrow=open;dashed=1;endSize=8;edgeStyle=elbowEdgeStyle;elbow=vertical;curved=0;rounded=0;" edge="1" parent="1" source="aM9ryv3xv72pqoxQDRHE-6">
          <mxGeometry relative="1" as="geometry">
            <mxPoint x="95" y="320" as="targetPoint" />
            <Array as="points">
              <mxPoint x="180" y="320" />
            </Array>
            <mxPoint x="265" y="320" as="sourcePoint" />
          </mxGeometry>
        </mxCell>
        <mxCell id="IaazxQ_HQGSogyqd4juv-13" value="Запрос о сохранении слова" style="html=1;verticalAlign=bottom;endArrow=open;dashed=1;endSize=8;edgeStyle=elbowEdgeStyle;elbow=vertical;curved=0;rounded=0;" edge="1" parent="1" target="aM9ryv3xv72pqoxQDRHE-6">
          <mxGeometry relative="1" as="geometry">
            <mxPoint x="265" y="350" as="targetPoint" />
            <Array as="points">
              <mxPoint x="190" y="350" />
            </Array>
            <mxPoint x="95" y="350" as="sourcePoint" />
          </mxGeometry>
        </mxCell>
        <mxCell id="IaazxQ_HQGSogyqd4juv-20" value="Подтверждение сохранения" style="html=1;verticalAlign=bottom;endArrow=open;dashed=1;endSize=8;edgeStyle=elbowEdgeStyle;elbow=vertical;curved=0;rounded=0;" edge="1" parent="1" source="aM9ryv3xv72pqoxQDRHE-6" target="aM9ryv3xv72pqoxQDRHE-2">
          <mxGeometry relative="1" as="geometry">
            <mxPoint x="100" y="270" as="targetPoint" />
            <Array as="points">
              <mxPoint x="185" y="270" />
            </Array>
            <mxPoint x="270" y="270" as="sourcePoint" />
          </mxGeometry>
        </mxCell>
        <mxCell id="IaazxQ_HQGSogyqd4juv-21" value="Подтверждение сохранения" style="html=1;verticalAlign=bottom;endArrow=open;dashed=1;endSize=8;edgeStyle=elbowEdgeStyle;elbow=vertical;curved=0;rounded=0;" edge="1" parent="1" source="aM9ryv3xv72pqoxQDRHE-6" target="aM9ryv3xv72pqoxQDRHE-2">
          <mxGeometry relative="1" as="geometry">
            <mxPoint x="90" y="390" as="targetPoint" />
            <Array as="points">
              <mxPoint x="180" y="390" />
            </Array>
            <mxPoint x="260" y="390" as="sourcePoint" />
          </mxGeometry>
        </mxCell>
        <mxCell id="IaazxQ_HQGSogyqd4juv-22" value="Запрос Квиз-теста" style="html=1;verticalAlign=bottom;endArrow=block;edgeStyle=elbowEdgeStyle;elbow=vertical;curved=0;rounded=0;" edge="1" parent="1" source="aM9ryv3xv72pqoxQDRHE-2" target="aM9ryv3xv72pqoxQDRHE-6">
          <mxGeometry relative="1" as="geometry">
            <mxPoint x="100" y="430" as="sourcePoint" />
            <Array as="points">
              <mxPoint x="180" y="430" />
            </Array>
            <mxPoint x="270" y="430" as="targetPoint" />
          </mxGeometry>
        </mxCell>
        <mxCell id="IaazxQ_HQGSogyqd4juv-32" value="Начало Квиз-теста" style="html=1;verticalAlign=bottom;endArrow=block;endSize=8;edgeStyle=elbowEdgeStyle;elbow=vertical;curved=0;rounded=0;endFill=1;" edge="1" parent="1" source="aM9ryv3xv72pqoxQDRHE-6">
          <mxGeometry relative="1" as="geometry">
            <mxPoint x="95" y="500" as="targetPoint" />
            <Array as="points">
              <mxPoint x="180" y="500" />
            </Array>
            <mxPoint x="265" y="500" as="sourcePoint" />
          </mxGeometry>
        </mxCell>
        <mxCell id="IaazxQ_HQGSogyqd4juv-33" value="Решение заданий" style="html=1;verticalAlign=bottom;endArrow=open;dashed=1;endSize=8;edgeStyle=elbowEdgeStyle;elbow=vertical;curved=0;rounded=0;" edge="1" parent="1" target="aM9ryv3xv72pqoxQDRHE-6">
          <mxGeometry relative="1" as="geometry">
            <mxPoint x="265" y="560" as="targetPoint" />
            <Array as="points">
              <mxPoint x="190" y="560" />
            </Array>
            <mxPoint x="95" y="560" as="sourcePoint" />
          </mxGeometry>
        </mxCell>
        <mxCell id="IaazxQ_HQGSogyqd4juv-34" value="Отображение результата теста" style="html=1;verticalAlign=bottom;endArrow=open;dashed=1;endSize=8;edgeStyle=elbowEdgeStyle;elbow=vertical;curved=0;rounded=0;" edge="1" parent="1" source="aM9ryv3xv72pqoxQDRHE-6">
          <mxGeometry relative="1" as="geometry">
            <mxPoint x="95" y="630" as="targetPoint" />
            <Array as="points">
              <mxPoint x="180" y="630" />
            </Array>
            <mxPoint x="270" y="630" as="sourcePoint" />
          </mxGeometry>
        </mxCell>
        <mxCell id="IaazxQ_HQGSogyqd4juv-35" value="Отправка заданий" style="html=1;verticalAlign=bottom;endArrow=block;endSize=8;edgeStyle=elbowEdgeStyle;elbow=vertical;curved=0;rounded=0;endFill=1;" edge="1" parent="1" source="aM9ryv3xv72pqoxQDRHE-6">
          <mxGeometry relative="1" as="geometry">
            <mxPoint x="95" y="530" as="targetPoint" />
            <Array as="points">
              <mxPoint x="175" y="530" />
            </Array>
            <mxPoint x="265" y="530" as="sourcePoint" />
          </mxGeometry>
        </mxCell>
        <mxCell id="IaazxQ_HQGSogyqd4juv-37" value="Запрос завершения Квиз-теста" style="html=1;verticalAlign=bottom;endArrow=block;edgeStyle=elbowEdgeStyle;elbow=vertical;curved=0;rounded=0;" edge="1" parent="1" target="aM9ryv3xv72pqoxQDRHE-6">
          <mxGeometry relative="1" as="geometry">
            <mxPoint x="95" y="590" as="sourcePoint" />
            <Array as="points">
              <mxPoint x="185" y="590" />
            </Array>
            <mxPoint x="265" y="590" as="targetPoint" />
          </mxGeometry>
        </mxCell>
        <mxCell id="IaazxQ_HQGSogyqd4juv-19" value="Подтверждение записи" style="html=1;verticalAlign=bottom;endArrow=open;dashed=1;endSize=8;edgeStyle=elbowEdgeStyle;elbow=vertical;curved=0;rounded=0;" edge="1" parent="1" source="IaazxQ_HQGSogyqd4juv-17" target="aM9ryv3xv72pqoxQDRHE-6">
          <mxGeometry relative="1" as="geometry">
            <mxPoint x="315" y="380" as="targetPoint" />
            <Array as="points">
              <mxPoint x="400" y="380" />
            </Array>
            <mxPoint x="485" y="380.34000000000003" as="sourcePoint" />
          </mxGeometry>
        </mxCell>
        <mxCell id="IaazxQ_HQGSogyqd4juv-31" value="Отправка слов" style="html=1;verticalAlign=bottom;endArrow=open;dashed=1;endSize=8;edgeStyle=elbowEdgeStyle;elbow=vertical;curved=0;rounded=0;" edge="1" parent="1" source="IaazxQ_HQGSogyqd4juv-29" target="aM9ryv3xv72pqoxQDRHE-6">
          <mxGeometry relative="1" as="geometry">
            <mxPoint x="310" y="470" as="targetPoint" />
            <Array as="points">
              <mxPoint x="400" y="470" />
            </Array>
            <mxPoint x="485" y="470.34000000000003" as="sourcePoint" />
          </mxGeometry>
        </mxCell>
        <mxCell id="IaazxQ_HQGSogyqd4juv-40" value="Запрос добавления своего слова" style="html=1;verticalAlign=bottom;endArrow=block;edgeStyle=elbowEdgeStyle;elbow=vertical;curved=0;rounded=0;" edge="1" parent="1" source="aM9ryv3xv72pqoxQDRHE-2" target="aM9ryv3xv72pqoxQDRHE-6">
          <mxGeometry x="-0.0526" relative="1" as="geometry">
            <mxPoint x="100" y="670" as="sourcePoint" />
            <Array as="points">
              <mxPoint x="185" y="670" />
            </Array>
            <mxPoint x="290" y="670" as="targetPoint" />
            <mxPoint as="offset" />
          </mxGeometry>
        </mxCell>
        <mxCell id="IaazxQ_HQGSogyqd4juv-41" value="Отправка формы добавления слова" style="html=1;verticalAlign=bottom;endArrow=open;dashed=1;endSize=8;edgeStyle=elbowEdgeStyle;elbow=vertical;curved=0;rounded=0;" edge="1" parent="1" source="aM9ryv3xv72pqoxQDRHE-6" target="aM9ryv3xv72pqoxQDRHE-2">
          <mxGeometry relative="1" as="geometry">
            <mxPoint x="100" y="700" as="targetPoint" />
            <Array as="points">
              <mxPoint x="185" y="700" />
            </Array>
            <mxPoint x="290" y="700" as="sourcePoint" />
          </mxGeometry>
        </mxCell>
        <mxCell id="IaazxQ_HQGSogyqd4juv-42" value="Отправка заполненной формы" style="html=1;verticalAlign=bottom;endArrow=open;dashed=1;endSize=8;edgeStyle=elbowEdgeStyle;elbow=vertical;curved=0;rounded=0;" edge="1" parent="1" source="aM9ryv3xv72pqoxQDRHE-2" target="aM9ryv3xv72pqoxQDRHE-6">
          <mxGeometry relative="1" as="geometry">
            <mxPoint x="290" y="730" as="targetPoint" />
            <Array as="points">
              <mxPoint x="195" y="730" />
            </Array>
            <mxPoint x="100" y="730" as="sourcePoint" />
          </mxGeometry>
        </mxCell>
        <mxCell id="IaazxQ_HQGSogyqd4juv-46" value="Подтверждение сохранения" style="html=1;verticalAlign=bottom;endArrow=open;dashed=1;endSize=8;edgeStyle=elbowEdgeStyle;elbow=vertical;curved=0;rounded=0;" edge="1" parent="1" source="aM9ryv3xv72pqoxQDRHE-6">
          <mxGeometry relative="1" as="geometry">
            <mxPoint x="95" y="790" as="targetPoint" />
            <Array as="points">
              <mxPoint x="185" y="790" />
            </Array>
            <mxPoint x="284.9999999999999" y="790" as="sourcePoint" />
          </mxGeometry>
        </mxCell>
      </root>
    </mxGraphModel>
  </diagram>
</mxfile>
